<svg width="423" height="423" viewBox="0 0 423 423" fill="none" xmlns="http://www.w3.org/2000/svg">
<rect width="423" height="423" fill="#E5E5E5"/>
<rect width="423" height="423" fill="white"/>
<g filter="url(#filter0_d)">
<path d="M166.709 190C165.375 190 164.242 189.6 163.309 188.8C162.509 187.867 162.109 186.733 162.109 185.4V179C162.109 175.933 163.775 173 167.109 170.2L209.509 127.8C219.775 119.267 226.842 112.333 230.709 107C234.575 101.533 236.509 95.8 236.509 89.8C236.509 82.0667 234.309 76 229.909 71.6C225.642 67.2 219.375 65 211.109 65C203.375 65 197.175 67.3333 192.509 72C187.842 76.5333 184.975 82.6 183.909 90.2C183.642 91.8 182.975 93 181.909 93.8C180.975 94.4667 179.909 94.8 178.709 94.8H168.309C167.109 94.8 166.109 94.4667 165.309 93.8C164.509 93 164.109 92.0667 164.109 91C164.375 83.8 166.309 76.9333 169.909 70.4C173.509 63.7333 178.775 58.3333 185.709 54.2C192.775 49.9333 201.242 47.8 211.109 47.8C226.175 47.8 237.509 51.7333 245.109 59.6C252.842 67.3333 256.709 77.2 256.709 89.2C256.709 97.6 254.575 105.2 250.309 112C246.175 118.667 239.709 125.867 230.909 133.6L192.509 172.6H254.909C256.375 172.6 257.509 173.067 258.309 174C259.242 174.8 259.709 175.867 259.709 177.2V185.4C259.709 186.733 259.242 187.867 258.309 188.8C257.375 189.6 256.242 190 254.909 190H166.709Z" fill="#1588FF"/>
</g>
<g filter="url(#filter1_d)">
<path d="M148.891 359.184C159.633 359.184 167.608 355.733 172.816 348.832C178.09 341.931 180.727 332.068 180.727 319.242C180.727 304.789 178.188 293.917 173.109 286.625C168.096 279.268 159.958 275.59 148.695 275.59C143.682 275.59 139.255 276.664 135.414 278.812C131.573 280.961 128.48 283.956 126.137 287.797C123.793 291.638 122.003 296.065 120.766 301.078C119.594 306.026 119.008 311.462 119.008 317.387C119.008 325.72 120.017 332.947 122.035 339.066C124.118 345.186 127.439 350.069 131.996 353.715C136.553 357.361 142.185 359.184 148.891 359.184ZM181.02 355.473C177.504 360.876 172.816 365.173 166.957 368.363C161.098 371.553 154.555 373.148 147.328 373.148C133.201 373.148 122.133 368.135 114.125 358.109C106.117 348.018 102.113 334.314 102.113 316.996C102.113 300.46 106.182 287.113 114.32 276.957C122.458 266.736 133.363 261.625 147.035 261.625C154.132 261.625 160.805 263.188 167.055 266.312C173.37 269.372 178.09 273.507 181.215 278.715L180.922 269.438V222.27L197.035 221.293V371H183.168L181.02 355.473ZM237.367 317.68C237.367 330.375 240.167 340.564 245.766 348.246C251.43 355.863 259.665 359.672 270.473 359.672C281.15 359.672 289.19 355.863 294.594 348.246C300.062 340.629 302.797 330.375 302.797 317.484C302.797 304.398 300.095 294.112 294.691 286.625C289.353 279.073 281.182 275.297 270.18 275.297C259.503 275.297 251.365 279.138 245.766 286.82C240.167 294.503 237.367 304.789 237.367 317.68ZM319.691 317.387C319.691 333.988 315.264 347.465 306.41 357.816C297.556 368.103 285.316 373.246 269.691 373.246C254.652 373.246 242.673 368.038 233.754 357.621C224.9 347.204 220.473 333.826 220.473 317.484C220.473 300.818 224.932 287.341 233.852 277.055C242.771 266.768 255.01 261.625 270.57 261.625C285.87 261.625 297.882 266.801 306.605 277.152C315.329 287.439 319.691 300.85 319.691 317.387Z" fill="black"/>
</g>
<g filter="url(#filter2_d)">
<line x1="27" y1="208.5" x2="395" y2="208.5" stroke="#1588FF" stroke-width="5"/>
</g>
<defs>
<filter id="filter0_d" x="158.109" y="47.8" width="105.6" height="150.2" filterUnits="userSpaceOnUse" color-interpolation-filters="sRGB">
<feFlood flood-opacity="0" result="BackgroundImageFix"/>
<feColorMatrix in="SourceAlpha" type="matrix" values="0 0 0 0 0 0 0 0 0 0 0 0 0 0 0 0 0 0 127 0"/>
<feOffset dy="4"/>
<feGaussianBlur stdDeviation="2"/>
<feColorMatrix type="matrix" values="0 0 0 0 0 0 0 0 0 0 0 0 0 0 0 0 0 0 0.25 0"/>
<feBlend mode="normal" in2="BackgroundImageFix" result="effect1_dropShadow"/>
<feBlend mode="normal" in="SourceGraphic" in2="effect1_dropShadow" result="shape"/>
</filter>
<filter id="filter1_d" x="98.1133" y="221.293" width="225.578" height="159.953" filterUnits="userSpaceOnUse" color-interpolation-filters="sRGB">
<feFlood flood-opacity="0" result="BackgroundImageFix"/>
<feColorMatrix in="SourceAlpha" type="matrix" values="0 0 0 0 0 0 0 0 0 0 0 0 0 0 0 0 0 0 127 0"/>
<feOffset dy="4"/>
<feGaussianBlur stdDeviation="2"/>
<feColorMatrix type="matrix" values="0 0 0 0 0 0 0 0 0 0 0 0 0 0 0 0 0 0 0.25 0"/>
<feBlend mode="normal" in2="BackgroundImageFix" result="effect1_dropShadow"/>
<feBlend mode="normal" in="SourceGraphic" in2="effect1_dropShadow" result="shape"/>
</filter>
<filter id="filter2_d" x="23" y="206" width="376" height="13" filterUnits="userSpaceOnUse" color-interpolation-filters="sRGB">
<feFlood flood-opacity="0" result="BackgroundImageFix"/>
<feColorMatrix in="SourceAlpha" type="matrix" values="0 0 0 0 0 0 0 0 0 0 0 0 0 0 0 0 0 0 127 0"/>
<feOffset dy="4"/>
<feGaussianBlur stdDeviation="2"/>
<feColorMatrix type="matrix" values="0 0 0 0 0 0 0 0 0 0 0 0 0 0 0 0 0 0 0.25 0"/>
<feBlend mode="normal" in2="BackgroundImageFix" result="effect1_dropShadow"/>
<feBlend mode="normal" in="SourceGraphic" in2="effect1_dropShadow" result="shape"/>
</filter>
</defs>
</svg>
