<svg width="458" height="275" viewBox="0 0 458 275" fill="none" xmlns="http://www.w3.org/2000/svg">
<rect x="25.5" y="0.5" width="253" height="145" fill="#ABABAB" stroke="black"/>
<rect x="35.5" y="9.5" width="233" height="127" fill="#E8E8E8" stroke="black"/>
<path d="M0.606201 274.5L25.4124 146.5H278.565L296.425 274.5H0.606201Z" fill="#ABABAB" stroke="black"/>
<path d="M20.5932 257.5L37.4215 159.5H263.557L275.436 257.5H20.5932Z" fill="#C4C4C4" stroke="black"/>
<path d="M104.592 254.5L110.2 221.5H186.478L190.436 254.5H104.592Z" fill="#C4C4C4" stroke="black"/>
<path d="M56.9019 177.866L57.9919 164.883L69.4592 165.083L69.8416 178.092L56.9019 177.866Z" fill="#696969" stroke="black"/>
<path d="M75.9019 177.866L76.9919 164.883L88.4593 165.083L88.8417 178.092L75.9019 177.866Z" fill="#696969" stroke="black"/>
<path d="M94.7914 177.75L96.1079 164.789L107.57 165.189L107.725 178.202L94.7914 177.75Z" fill="#696969" stroke="black"/>
<path d="M37.5514 177.51L38.8679 164.548L50.3299 164.949L50.4852 177.962L37.5514 177.51Z" fill="#696969" stroke="black"/>
<path d="M94.7914 177.75L96.1079 164.789L107.57 165.189L107.725 178.202L94.7914 177.75Z" fill="#696969" stroke="black"/>
<path d="M208.369 178.332L209.005 165.319L220.472 165.119L221.309 178.106L208.369 178.332Z" fill="#696969" stroke="black"/>
<path d="M227.369 178.332L228.005 165.319L239.472 165.119L240.309 178.106L227.369 178.332Z" fill="#696969" stroke="black"/>
<path d="M189.014 177.98L189.878 164.98H201.347L201.956 177.98H189.014Z" fill="#696969" stroke="black"/>
<path d="M246.485 178.442L246.894 165.42L258.356 165.019L259.419 177.99L246.485 178.442Z" fill="#696969" stroke="black"/>
<path d="M133.254 178.22L134.118 165.22H145.587L146.196 178.22H133.254Z" fill="#696969" stroke="black"/>
<path d="M152.254 178.22L153.118 165.22H164.587L165.196 178.22H152.254Z" fill="#696969" stroke="black"/>
<path d="M114.014 177.98L114.878 164.98H126.347L126.956 177.98H114.014Z" fill="#696969" stroke="black"/>
<path d="M171.254 178.22L172.118 165.22H183.587L184.196 178.22H171.254Z" fill="#696969" stroke="black"/>
<path d="M56.9019 215.866L57.9919 202.883L69.4592 203.083L69.8416 216.092L56.9019 215.866Z" fill="#696969" stroke="black"/>
<path d="M75.9019 215.866L76.9919 202.883L88.4593 203.083L88.8417 216.092L75.9019 215.866Z" fill="#696969" stroke="black"/>
<path d="M37.5514 215.51L38.8679 202.548L50.3299 202.949L50.4852 215.962L37.5514 215.51Z" fill="#696969" stroke="black"/>
<path d="M208.369 216.332L209.005 203.319L220.472 203.119L221.309 216.106L208.369 216.332Z" fill="#696969" stroke="black"/>
<path d="M227.369 216.332L228.005 203.319L239.472 203.119L240.309 216.106L227.369 216.332Z" fill="#696969" stroke="black"/>
<path d="M246.485 216.442L246.894 203.42L258.356 203.019L259.419 215.99L246.485 216.442Z" fill="#696969" stroke="black"/>
<path d="M56.9019 195.866L57.9919 182.883L69.4592 183.083L69.8416 196.092L56.9019 195.866Z" fill="#696969" stroke="black"/>
<path d="M75.9019 195.866L76.9919 182.883L88.4593 183.083L88.8417 196.092L75.9019 195.866Z" fill="#696969" stroke="black"/>
<path d="M94.7914 195.75L96.1079 182.789L107.57 183.189L107.725 196.202L94.7914 195.75Z" fill="#696969" stroke="black"/>
<path d="M37.5514 195.51L38.8679 182.548L50.3299 182.949L50.4852 195.962L37.5514 195.51Z" fill="#696969" stroke="black"/>
<path d="M94.7914 195.75L96.1079 182.789L107.57 183.189L107.725 196.202L94.7914 195.75Z" fill="#696969" stroke="black"/>
<path d="M208.369 196.332L209.005 183.319L220.472 183.119L221.309 196.106L208.369 196.332Z" fill="#696969" stroke="black"/>
<path d="M227.369 196.332L228.005 183.319L239.472 183.119L240.309 196.106L227.369 196.332Z" fill="#696969" stroke="black"/>
<path d="M189.014 195.98L189.878 182.98H201.347L201.956 195.98H189.014Z" fill="#696969" stroke="black"/>
<path d="M246.485 196.442L246.894 183.42L258.356 183.019L259.419 195.99L246.485 196.442Z" fill="#696969" stroke="black"/>
<path d="M133.254 196.22L134.118 183.22H145.587L146.196 196.22H133.254Z" fill="#696969" stroke="black"/>
<path d="M152.254 196.22L153.118 183.22H164.587L165.196 196.22H152.254Z" fill="#696969" stroke="black"/>
<path d="M114.014 195.98L114.878 182.98H126.347L126.956 195.98H114.014Z" fill="#696969" stroke="black"/>
<path d="M171.254 196.22L172.118 183.22H183.587L184.196 196.22H171.254Z" fill="#696969" stroke="black"/>
<path d="M98.5763 216.5L100.144 205.5H197.799L198.469 216.5H98.5763Z" fill="#696969" stroke="black"/>
<path d="M441 146.753C470.6 137.953 448.667 164.42 434 178.753" stroke="black" stroke-width="3"/>
<path d="M369.783 138.5H439.087C441.871 138.5 443.987 141.003 443.524 143.748L430.21 222.748C429.845 224.914 427.969 226.5 425.772 226.5H381.323C379.089 226.5 377.193 224.861 376.87 222.65L365.331 143.65C364.934 140.935 367.039 138.5 369.783 138.5Z" fill="#FF4E4E" stroke="black"/>
<path d="M443.5 141.5C443.5 147.299 425.815 152 404 152C382.185 152 364.5 147.299 364.5 141.5C364.5 135.701 382.185 131 404 131C425.815 131 443.5 135.701 443.5 141.5Z" fill="#9F2A2A"/>
<path d="M443.5 141.5C443.5 147.299 425.815 152 404 152C382.185 152 364.5 147.299 364.5 141.5C364.5 135.701 382.185 131 404 131C425.815 131 443.5 135.701 443.5 141.5Z" stroke="black"/>
</svg>
