<svg width="708" height="708" viewBox="0 0 708 708" fill="none" xmlns="http://www.w3.org/2000/svg">
<g filter="url(#filter0_d)">
<circle cx="354" cy="350" r="350" fill="url(#paint0_linear)"/>
</g>
<path d="M209.237 610.152C200.021 610.152 192.005 608.088 185.189 603.96C178.373 599.736 173.141 593.736 169.493 585.96C165.845 578.088 164.021 568.872 164.021 558.312C164.021 547.656 165.845 538.44 169.493 530.664C173.141 522.792 178.325 516.792 185.045 512.664C191.861 508.44 199.925 506.328 209.237 506.328C218.549 506.328 226.613 508.44 233.429 512.664C240.245 516.792 245.477 522.744 249.125 530.52C252.773 538.296 254.597 547.512 254.597 558.168C254.597 568.824 252.773 578.088 249.125 585.96C245.477 593.736 240.245 599.736 233.429 603.96C226.613 608.088 218.549 610.152 209.237 610.152ZM209.237 602.232C220.661 602.232 229.541 598.392 235.877 590.712C242.213 583.032 245.381 572.184 245.381 558.168C245.381 544.152 242.213 533.352 235.877 525.768C229.637 518.088 220.757 514.248 209.237 514.248C197.813 514.248 188.933 518.088 182.597 525.768C176.357 533.448 173.237 544.248 173.237 558.168C173.237 572.088 176.357 582.936 182.597 590.712C188.933 598.392 197.813 602.232 209.237 602.232ZM267.965 609.72C266.141 609.816 264.749 609.528 263.789 608.856C262.925 608.184 262.493 607.224 262.493 605.976C262.493 603.576 263.885 602.328 266.669 602.232L270.845 601.944C276.221 601.56 280.157 599.928 282.653 597.048C285.245 594.072 286.541 589.224 286.541 582.504V511.368C286.541 510.024 286.973 508.92 287.837 508.056C288.797 507.192 289.853 506.76 291.005 506.76C292.445 506.76 293.549 507.192 294.317 508.056C295.085 508.824 295.469 509.928 295.469 511.368V582.792C295.469 591.528 293.549 598.056 289.709 602.376C285.965 606.6 280.157 608.952 272.285 609.432L267.965 609.72ZM407.148 604.248C407.436 604.824 407.58 605.4 407.58 605.976C407.58 607.032 407.148 607.944 406.284 608.712C405.42 609.384 404.412 609.72 403.26 609.72C402.492 609.72 401.724 609.48 400.956 609C400.284 608.52 399.756 607.848 399.372 606.984L388.428 581.928H332.556L321.468 606.984C320.604 608.808 319.26 609.72 317.436 609.72C316.284 609.72 315.276 609.384 314.412 608.712C313.644 607.944 313.26 606.984 313.26 605.832C313.26 605.16 313.356 604.632 313.548 604.248L355.596 509.784C356.46 507.672 358.044 506.616 360.348 506.616C361.404 506.616 362.364 506.904 363.228 507.48C364.188 508.056 364.86 508.824 365.244 509.784L407.148 604.248ZM384.972 574.152L360.492 518.424L335.868 574.152H384.972ZM500.708 506.76C502.052 506.76 503.06 507.192 503.732 508.056C504.5 508.824 504.884 509.928 504.884 511.368V605.112C504.884 606.456 504.5 607.56 503.732 608.424C502.964 609.288 501.908 609.72 500.564 609.72C499.124 609.72 497.828 609 496.676 607.56L433.604 522.456V605.112C433.604 606.456 433.22 607.56 432.452 608.424C431.684 609.288 430.676 609.72 429.428 609.72C427.988 609.72 426.932 609.336 426.26 608.568C425.588 607.704 425.252 606.552 425.252 605.112V511.368C425.252 510.024 425.636 508.92 426.404 508.056C427.268 507.192 428.42 506.76 429.86 506.76C431.396 506.76 432.644 507.48 433.604 508.92L496.532 593.88V511.368C496.532 510.024 496.916 508.92 497.684 508.056C498.452 507.192 499.46 506.76 500.708 506.76ZM535.607 609.72C534.263 609.72 533.159 609.288 532.295 608.424C531.527 607.56 531.143 606.456 531.143 605.112V511.368C531.143 510.024 531.527 508.92 532.295 508.056C533.159 507.192 534.263 506.76 535.607 506.76C536.951 506.76 538.007 507.192 538.775 508.056C539.639 508.92 540.071 510.024 540.071 511.368V605.112C540.071 606.456 539.639 607.56 538.775 608.424C538.007 609.288 536.951 609.72 535.607 609.72Z" fill="black"/>
<g filter="url(#filter1_d)">
<path d="M188.249 381.296C186.713 381.296 185.177 381.008 183.641 380.432L68.7293 328.88C65.4653 327.344 62.8733 325.328 60.9533 322.832C59.2253 320.144 58.3613 317.168 58.3613 313.904V311.6C58.3613 308.336 59.2253 305.456 60.9533 302.96C62.8733 300.272 65.4653 298.16 68.7293 296.624L183.641 245.072C185.177 244.496 186.713 244.208 188.249 244.208C191.513 244.208 194.201 245.36 196.313 247.664C198.617 249.776 199.769 252.464 199.769 255.728C199.769 258.032 199.001 260.24 197.465 262.352C196.121 264.272 194.297 265.712 191.993 266.672L88.3133 312.752L191.993 358.832C194.297 359.792 196.121 361.328 197.465 363.44C199.001 365.36 199.769 367.472 199.769 369.776C199.769 373.04 198.617 375.824 196.313 378.128C194.201 380.24 191.513 381.296 188.249 381.296ZM315.788 425.36C312.332 425.36 309.452 424.208 307.148 421.904C305.036 419.6 303.98 416.816 303.98 413.552C303.98 412.4 304.268 410.96 304.844 409.232L381.164 186.032C381.932 183.728 383.276 181.808 385.196 180.272C387.116 178.736 389.516 177.968 392.396 177.968C395.852 177.968 398.636 179.12 400.748 181.424C403.052 183.728 404.204 186.512 404.204 189.776C404.204 190.928 403.916 192.368 403.34 194.096L327.02 417.296C326.252 419.6 324.908 421.52 322.988 423.056C321.068 424.592 318.668 425.36 315.788 425.36ZM519.728 381.296C516.464 381.296 513.68 380.24 511.376 378.128C509.264 375.824 508.208 373.04 508.208 369.776C508.208 367.472 508.88 365.36 510.224 363.44C511.76 361.328 513.68 359.792 515.984 358.832L619.664 312.752L515.984 266.672C513.68 265.712 511.76 264.272 510.224 262.352C508.88 260.24 508.208 258.032 508.208 255.728C508.208 252.464 509.264 249.776 511.376 247.664C513.68 245.36 516.464 244.208 519.728 244.208C521.456 244.208 522.992 244.496 524.336 245.072L639.248 296.624C642.512 298.16 645.008 300.272 646.736 302.96C648.656 305.456 649.616 308.336 649.616 311.6V313.904C649.616 317.168 648.656 320.144 646.736 322.832C645.008 325.328 642.512 327.344 639.248 328.88L524.336 380.432C522.992 381.008 521.456 381.296 519.728 381.296Z" fill="#FF0000"/>
</g>
<defs>
<filter id="filter0_d" x="0" y="0" width="708" height="708" filterUnits="userSpaceOnUse" color-interpolation-filters="sRGB">
<feFlood flood-opacity="0" result="BackgroundImageFix"/>
<feColorMatrix in="SourceAlpha" type="matrix" values="0 0 0 0 0 0 0 0 0 0 0 0 0 0 0 0 0 0 127 0"/>
<feOffset dy="4"/>
<feGaussianBlur stdDeviation="2"/>
<feColorMatrix type="matrix" values="0 0 0 0 0 0 0 0 0 0 0 0 0 0 0 0 0 0 1 0"/>
<feBlend mode="normal" in2="BackgroundImageFix" result="effect1_dropShadow"/>
<feBlend mode="normal" in="SourceGraphic" in2="effect1_dropShadow" result="shape"/>
</filter>
<filter id="filter1_d" x="54.3612" y="177.968" width="599.255" height="255.392" filterUnits="userSpaceOnUse" color-interpolation-filters="sRGB">
<feFlood flood-opacity="0" result="BackgroundImageFix"/>
<feColorMatrix in="SourceAlpha" type="matrix" values="0 0 0 0 0 0 0 0 0 0 0 0 0 0 0 0 0 0 127 0"/>
<feOffset dy="4"/>
<feGaussianBlur stdDeviation="2"/>
<feColorMatrix type="matrix" values="0 0 0 0 0 0 0 0 0 0 0 0 0 0 0 0 0 0 0.25 0"/>
<feBlend mode="normal" in2="BackgroundImageFix" result="effect1_dropShadow"/>
<feBlend mode="normal" in="SourceGraphic" in2="effect1_dropShadow" result="shape"/>
</filter>
<linearGradient id="paint0_linear" x1="354" y1="0" x2="354" y2="700" gradientUnits="userSpaceOnUse">
<stop stop-color="#60ECFF"/>
<stop offset="0.692708" stop-color="#EF8DFF"/>
<stop offset="0.9998" stop-color="#EF8DFF"/>
</linearGradient>
</defs>
</svg>
